<svg xmlns="http://www.w3.org/2000/svg" width="19.063" height="18.92" viewBox="0 0 19.063 18.92">
  <path id="Path_51" data-name="Path 51" d="M199.88,10.248l.358.43.358-.43h11.467V0H193.072V7.955l.717-1.648h1.218l.43.932V6.307h1.505l.215.645.215-.645h6.88v.358a1.5,1.5,0,0,1,.932-.358h2.222l.43.932V6.307h1.29l.358.5v-.5h1.29v3.01h-1.29l-.358-.5v.5h-1.863l-.215-.5h-.5l-.215.5h-1.29a1.29,1.29,0,0,1-.86-.358v.358h-1.863l-.358-.5v.5h-7.167l-.215-.5h-.5l-.215.5H193v9.6h18.92V12.972a1.29,1.29,0,0,1-.645.215h-6.307l-.358-.5v.5h-1.218V12.4a1.075,1.075,0,0,1-.573.143h-.43v.717h-1.863l-.358-.43-.358.43h-3.153v-3.01Z" transform="translate(-193 0)" fill="#ebebeb"/>
</svg>
