<svg xmlns="http://www.w3.org/2000/svg" xmlns:xlink="http://www.w3.org/1999/xlink" width="92.6" height="113.782" viewBox="0 0 92.6 113.782">
  <defs>
    <clipPath id="clip-path">
      <rect width="92.6" height="113.782" fill="none"/>
    </clipPath>
  </defs>
  <g id="Artwork_1" data-name="Artwork 1" clip-path="url(#clip-path)">
    <g id="Group_513" data-name="Group 513">
      <path id="Path_1679" data-name="Path 1679" d="M0,63.1V88.9H14.8V85.3H4V63.1Z" transform="translate(0 0.022)" fill="#212026"/>
      <path id="Path_1680" data-name="Path 1680" d="M45.9,88.9h4V72.4L66.1,90.1v-27h-4V79.7L45.9,61.9Z" transform="translate(0 0.022)" fill="#212026"/>
      <path id="Path_1681" data-name="Path 1681" d="M86.4,82.4c-1.5,1.7-3.8,2.5-6.8,2.5H77.5V67.2h2.1c3,0,5.2.8,6.8,2.5A9.2,9.2,0,0,1,88.5,76a9.3,9.3,0,0,1-2.1,6.3M85.2,64.2a14.5,14.5,0,0,0-5.6-1H73.5V88.9h6.1a15.2,15.2,0,0,0,5.6-1,10.5,10.5,0,0,0,4.1-2.8,13.2,13.2,0,0,0,3.1-9,13.2,13.2,0,0,0-3.1-9,10.5,10.5,0,0,0-4.1-2.8" transform="translate(0 0.022)" fill="#212026"/>
      <path id="Path_1682" data-name="Path 1682" d="M10.9,12.4a4.1,4.1,0,0,0,1-2.7,3.1,3.1,0,0,0-.6-1.9L9.2,4.9a3.2,3.2,0,0,1-.7-2C8.5,1.6,9,.3,10.6.3s2.2,1.3,1.7,3.2h.2A19.5,19.5,0,0,1,13.7.3V.1l-.6.9a2.5,2.5,0,0,0-2.3-1A3.3,3.3,0,0,0,8.5.8a3.9,3.9,0,0,0-1.3,3,3.8,3.8,0,0,0,1,2.5L9.9,8.9a2.8,2.8,0,0,1,.5,1.7A2.5,2.5,0,0,1,8,13.4c-1.4,0-2.3-.6-2.3-2.1A8.3,8.3,0,0,1,6,9.6H5.7a20.1,20.1,0,0,1-1,3,5.3,5.3,0,0,0,3,1,4.1,4.1,0,0,0,3.2-1.3" transform="translate(0 0.022)" fill="#212026"/>
      <path id="Path_1683" data-name="Path 1683" d="M23.3,11.1v-.7h-.1a4,4,0,0,1-3.8,2.9,2.3,2.3,0,0,1-1.9-.9,4.6,4.6,0,0,1-.6-2.6,13.7,13.7,0,0,1,2.6-8A3.5,3.5,0,0,1,22.1.3a1.6,1.6,0,0,1,1.7,1.1,4.7,4.7,0,0,1,0,2.6H24A35.4,35.4,0,0,1,25.3.4h-.1l-.6.9A2.6,2.6,0,0,0,22,0a5.4,5.4,0,0,0-3.8,1.6,12,12,0,0,0-3.1,7.8c0,2.5,1,4.3,3.7,4.3A5.3,5.3,0,0,0,23.3,11" transform="translate(0 0.022)" fill="#212026"/>
      <path id="Path_1684" data-name="Path 1684" d="M24.9,13.5H33l1.3-3h-.2a9.9,9.9,0,0,1-1.4,2c-.6.5-1.3.7-3.1.7s-1.5-.1-1.4-.5,1-3.7,1.6-5.8h1.5c1.4,0,1.4.7,1.2,2h.2a22.9,22.9,0,0,1,1.2-4h-.2c-.5,1.1-.9,1.6-2.3,1.6H29.9c.5-1.8,1.2-4,1.6-5.4s.2-.4.4-.4h1.2c1.7,0,1.9.1,1.9.9s-.1,1.1-.1,1.7h.2a26.7,26.7,0,0,1,.9-3H28.7V.5h1c.4,0,.4.1.3.5L28.4,6.6c-.6,2-1.3,4.2-1.8,5.9s-.4.7-.7.8H25Z" transform="translate(0 0.022)" fill="#212026"/>
      <path id="Path_1685" data-name="Path 1685" d="M35.7,13.5h3.8v-.2l-1.1-.2c-.4-.1-.4-.3-.3-1s1.4-5.5,2.7-10.3c1,3.9,2.4,9.3,3,11.9l.9-.2c.9-3.8,2.9-10.8,3.5-12.3a.8.8,0,0,1,.6-.6h.9V.3H46.2L46,.5h.9c.5.1.6.2.5.7s-1,4.1-2.6,9.9L42,.3H39.2V.5h.9a.585.585,0,0,1,.5.8c-1.1,4.2-2.7,9.9-3.1,10.9s-.4.8-.8.9h-.9Z" transform="translate(0 0.022)" fill="#212026"/>
      <path id="Path_1686" data-name="Path 1686" d="M55.1,13.5v-.2H54c-.4,0-.4-.2-.3-.6s1.1-4.1,1.6-6.2,1.1-4,1.7-5.8c2.5-.1,2.7.1,2.7.7a8.8,8.8,0,0,1-.2,1.9h.3a28.9,28.9,0,0,1,1-3.3c-.6.3-1.2.3-3.9.3H55.8A9.714,9.714,0,0,1,52.4,0a30,30,0,0,1-1.2,3.1l.2.2,1-1.7c.5-.8.8-1,3.1-1-.4,1.6-1,3.5-1.6,5.6s-1.4,4.6-2,6.3a.8.8,0,0,1-.8.5h-1v.3h5" transform="translate(0 0.022)" fill="#212026"/>
      <path id="Path_1687" data-name="Path 1687" d="M69.9,1.9A3.3,3.3,0,0,1,72.4.3h0c1.4,0,1.9,1.2,1.9,2.6a18.4,18.4,0,0,1-2.6,9,3,3,0,0,1-2.5,1.5c-1,0-1.9-.7-1.9-2.8a18.1,18.1,0,0,1,2.6-8.7m-.7,11.8a5.1,5.1,0,0,0,4-2A13.9,13.9,0,0,0,75.8,4c0-2.4-1-4-3.4-4h0a4.9,4.9,0,0,0-3.2,1.2C67.1,3,65.7,7,65.7,9.8s1.5,4,3.5,4" transform="translate(0 0.022)" fill="#212026"/>
      <path id="Path_1688" data-name="Path 1688" d="M81.1,13.5v-.2L80,13.1c-.3,0-.4-.1-.3-.5s1-3.6,1.5-5.5h1.6c1.5,0,1.6.4,1.4,2.1h.2c.2-.9.8-3.1,1.1-4h-.2c-.6,1.3-1,1.6-2.4,1.6H81.3c.4-1.8,1.4-5,1.7-5.9a.4.4,0,0,1,.4-.3h1.4c1.8,0,2,.2,2,1a9.1,9.1,0,0,1-.2,1.7h.3A24.705,24.705,0,0,1,88,.2H80.1V.5h1.1c.2,0,.2.1.2.4s-.8,3-1.5,5.6S78.6,11,78,12.6s-.3.5-.6.5h-.9v.2h4.7" transform="translate(0 0.022)" fill="#212026"/>
      <rect id="Rectangle_223" data-name="Rectangle 223" width="52.2" height="4.36" transform="translate(20.1 109.422)" fill="#212026"/>
      <path id="Path_1689" data-name="Path 1689" d="M0,31V56.8H4.1V45.2h9.4V41.5H4.1V34.7H15.5V31H0Z" transform="translate(0 0.022)" fill="#212026"/>
      <rect id="Rectangle_224" data-name="Rectangle 224" width="4" height="25.78" transform="translate(22.3 31.022)" fill="#212026"/>
      <path id="Path_1690" data-name="Path 1690" d="M33.6,56.8h4.1V40.3L53.9,58V31H49.8V47.6L33.6,29.8Z" transform="translate(0 0.022)" fill="#212026"/>
      <path id="Path_1691" data-name="Path 1691" d="M71.9,41.6V30.8H67.5V41.6H58.6V46h8.9V56.8h4.4V46H92.6V41.6Z" transform="translate(0 0.022)" fill="#212026"/>
      <path id="Path_1692" data-name="Path 1692" d="M23.9,85.1h0l.6-1.7h0l2-4.8,2.6-6.7,3.1,7.9,1.5,3.6,2.2,5.5h4.4L29.1,62,17.9,88.9h4.4Z" transform="translate(0 0.022)" fill="#212026"/>
    </g>
  </g>
</svg>
