<svg xmlns="http://www.w3.org/2000/svg" width="29.742" height="18.635" viewBox="0 0 29.742 18.635">
  <g id="Group_52" data-name="Group 52" transform="translate(0 0)">
    <path id="Path_49" data-name="Path 49" d="M139.92,4.6a6.02,6.02,0,1,0,6.02,6.02,6.02,6.02,0,0,0-6.02-6.02Zm-1.362,9.6a3.8,3.8,0,0,1,0-7.167Zm2.723,0v-7.1a3.8,3.8,0,0,1,0,7.167Z" transform="translate(-126.733 -1.302)" fill="#ebebeb"/>
    <path id="Path_50" data-name="Path 50" d="M151.993,0H125.477A1.577,1.577,0,0,0,123.9,1.576v15.48a1.577,1.577,0,0,0,1.577,1.577h26.588a1.577,1.577,0,0,0,1.577-1.577V1.576A1.577,1.577,0,0,0,151.993,0ZM140.168,15.981h-3.082a6.593,6.593,0,0,1-6.665-6.522,6.522,6.522,0,0,1,6.665-6.665h3.082a6.737,6.737,0,0,1,6.88,6.665A6.863,6.863,0,0,1,140.168,15.981Z" transform="translate(-123.9 0.002)" fill="#ebebeb"/>
  </g>
</svg>
