<svg xmlns="http://www.w3.org/2000/svg" width="19.906" height="23.998" viewBox="0 0 19.906 23.998">
  <g id="_131047" data-name="131047" transform="translate(-3.36)">
    <g id="Group_16" data-name="Group 16" transform="translate(3.36 4.978)">
      <g id="Group_15" data-name="Group 15">
        <path id="Path_28" data-name="Path 28" d="M13.314,17.452a.309.309,0,0,1-.136-.032L3.529,12.6a.3.3,0,0,1,0-.544l7.692-3.845a.3.3,0,0,1,.272.545L4.346,12.324l8.967,4.483,8.967-4.483L15.23,8.8a.3.3,0,1,1,.272-.545l7.6,3.8a.3.3,0,0,1,0,.544L13.45,17.419A.294.294,0,0,1,13.314,17.452Z" transform="translate(-3.361 -8.175)" fill="#fff"/>
        <path id="Path_29" data-name="Path 29" d="M13.313,35.922a.309.309,0,0,1-.136-.032L3.529,31.067a.3.3,0,1,1,.272-.545l9.512,4.756,9.512-4.756a.3.3,0,0,1,.272.545L13.448,35.89A.3.3,0,0,1,13.313,35.922Z" transform="translate(-3.36 -16.902)" fill="#fff"/>
        <path id="Path_30" data-name="Path 30" d="M35.354,24.84a.3.3,0,0,1-.3-.3V14.793a.3.3,0,1,1,.609,0v9.742A.3.3,0,0,1,35.354,24.84Z" transform="translate(-15.754 -10.645)" fill="#fff"/>
        <path id="Path_31" data-name="Path 31" d="M19.51,32.762a.3.3,0,0,1-.3-.3V22.715a.3.3,0,0,1,.609,0v9.742A.3.3,0,0,1,19.51,32.762Z" transform="translate(-9.558 -13.743)" fill="#fff"/>
        <path id="Path_32" data-name="Path 32" d="M3.665,24.84a.3.3,0,0,1-.3-.3V14.793a.3.3,0,1,1,.609,0v9.742A.3.3,0,0,1,3.665,24.84Z" transform="translate(-3.361 -10.645)" fill="#fff"/>
      </g>
    </g>
    <g id="Group_17" data-name="Group 17" transform="translate(10.056)">
      <path id="Path_33" data-name="Path 33" d="M19.51,8.061a.3.3,0,0,1-.3-.3V.3a.3.3,0,1,1,.609,0V7.756A.3.3,0,0,1,19.51,8.061Z" transform="translate(-16.253)" fill="#fff"/>
      <path id="Path_34" data-name="Path 34" d="M20.566,3.562a.306.306,0,0,1-.216-.089L17.614.736,14.875,3.473a.3.3,0,0,1-.43-.43L17.4.09A.3.3,0,0,1,17.614,0h0a.307.307,0,0,1,.216.089l2.953,2.953a.3.3,0,0,1-.216.52Z" transform="translate(-14.356)" fill="#fff"/>
    </g>
  </g>
</svg>
