<svg xmlns="http://www.w3.org/2000/svg" width="21.75" height="21.753" viewBox="0 0 21.75 21.753">
  <g id="Group_18" data-name="Group 18" transform="translate(-79.546 25.644)">
    <path id="Path_35" data-name="Path 35" d="M97.711-3.891h0a.334.334,0,0,0,.334-.333V-18.071a.334.334,0,0,0-.333-.333h0a.333.333,0,0,0-.333.333V-4.557H80.211V-21.724H93.446a.331.331,0,0,0,.236-.1.329.329,0,0,0,.1-.235.33.33,0,0,0-.1-.236.333.333,0,0,0-.237-.1H79.879a.333.333,0,0,0-.333.333V-4.224a.334.334,0,0,0,.333.333Z" fill="#fff"/>
    <path id="Path_36" data-name="Path 36" d="M101.2-25.546a.328.328,0,0,0-.235-.1.328.328,0,0,0-.235.1L86.486-11.3l-3.641-3.641a.327.327,0,0,0-.225-.088h-.009a.327.327,0,0,0-.232.1.335.335,0,0,0,0,.459l3.871,3.87a.333.333,0,0,0,.471,0L101.2-25.075A.333.333,0,0,0,101.2-25.546Z" fill="#fff"/>
  </g>
</svg>
