<svg xmlns="http://www.w3.org/2000/svg" width="20.657" height="20.66" viewBox="0 0 20.657 20.66">
  <path id="Path_26" data-name="Path 26" d="M-1215.9-804.512l-2.952,0a5.327,5.327,0,0,1-5.321-5.321v-9.015a5.327,5.327,0,0,1,5.321-5.322h9.015a5.327,5.327,0,0,1,5.321,5.322v9.015a5.327,5.327,0,0,1-5.321,5.321h-3.414a.318.318,0,0,0,.31-.317v-6.445h2.368a.317.317,0,0,0,.317-.317v-2.553a.315.315,0,0,0-.093-.224.315.315,0,0,0-.224-.093h-2.369v-1.495c0-.718.171-1.083,1.107-1.083h1.357a.317.317,0,0,0,.316-.317v-2.372a.317.317,0,0,0-.316-.317l-2.014,0a3.538,3.538,0,0,0-3.726,3.823v1.763h-2.026a.317.317,0,0,0-.317.317v2.553a.317.317,0,0,0,.317.317h2.026v6.445a.317.317,0,0,0,.317.317h0Z" transform="translate(1224.671 824.671)" fill="#fff" stroke="rgba(0,0,0,0)" stroke-width="1"/>
</svg>
