<svg xmlns="http://www.w3.org/2000/svg" width="47" height="55.321" viewBox="0 0 47 55.321">
  <g id="_3" data-name="3" transform="translate(-954.036 -456.85)">
    <g id="Group_55" data-name="Group 55">
      <path id="Polygon_1" data-name="Polygon 1" d="M1000.036,471.261l-22.5-13.25-22.5,13.25v26.5l22.5,13.25,22.5-13.25Z" fill="none" stroke="#414141" stroke-width="2"/>
      <path id="Path_42" data-name="Path 42" d="M1000.036,497.145l-22.5-13.455-22.5,13.455" fill="none" stroke="#414141" stroke-width="2"/>
      <line id="Line_5" data-name="Line 5" y1="26.371" transform="translate(977.536 458.011)" fill="none" stroke="#414141" stroke-width="2"/>
    </g>
    <path id="Path_45" data-name="Path 45" d="M954.051,470.682v25.4l2,1.169V474.1l10.05,5.3V481.2l2,1.168h0v-4.126Z" fill="#414141"/>
    <g id="Path_45-2" data-name="Path 45">
      <path id="Path_46" data-name="Path 46" d="M978.538,493.416v-20.37l8.45-4.6v20.369l-8.45,4.6m-2,3.422h0l12.449-6.856v-24.96l-12.45,6.855v24.96Z" fill="#fff"/>
    </g>
    <g id="Path_45-3" data-name="Path 45">
      <path id="Path_47" data-name="Path 47" d="M968.1,499.162v-20.37l8.45-4.6v20.37l-8.449,4.6m-2,3.423h0l12.448-6.855v-24.96l-12.45,6.855v24.961Z" fill="#fff"/>
    </g>
  </g>
</svg>
