<svg xmlns="http://www.w3.org/2000/svg" width="47" height="55.321" viewBox="0 0 47 55.321">
  <g id="_4" data-name="4" transform="translate(-1033.846 -456.85)">
    <g id="Group_55" data-name="Group 55">
      <path id="Polygon_1" data-name="Polygon 1" d="M1034.846,471.261l22.5-13.25,22.5,13.25v26.5l-22.5,13.25-22.5-13.25Z" fill="none" stroke="#414141" stroke-width="2"/>
      <path id="Path_42" data-name="Path 42" d="M1034.846,497.145l22.5-13.455,22.5,13.455" fill="none" stroke="#414141" stroke-width="2"/>
      <line id="Line_5" data-name="Line 5" y1="26.371" transform="translate(1057.346 458.011)" fill="none" stroke="#414141" stroke-width="2"/>
      <path id="Path_42-2" data-name="Path 42" d="M1057.84,483.87l21.192-12.673" fill="none" stroke="#414141" stroke-width="2"/>
    </g>
    <g id="Path_45" data-name="Path 45">
      <path id="Path_43" data-name="Path 43" d="M1045.878,500.809V479.877l-8.45-4.6v20.369l8.45,5.165m2,3.423h0l-12.448-7.418v-24.96l12.45,6.855v25.524Z" fill="#fff"/>
    </g>
    <g id="Path_45-2" data-name="Path 45">
      <path id="Path_44" data-name="Path 44" d="M1056.328,495.122v-9.494l-8.45-4.6v9.392l8.45,4.7m2,3.423h0l-12.448-6.957V477.6l12.45,6.855v14.086Z" fill="#fff"/>
    </g>
  </g>
</svg>
