<svg xmlns="http://www.w3.org/2000/svg" width="19.657" height="19.657" viewBox="0 0 19.657 19.657">
  <g id="Group_3" data-name="Group 3" transform="translate(0)">
    <path id="Path_22" data-name="Path 22" d="M14.336,0H5.321A5.327,5.327,0,0,0,0,5.321v9.015a5.327,5.327,0,0,0,5.321,5.321h9.015a5.327,5.327,0,0,0,5.321-5.321V5.321A5.327,5.327,0,0,0,14.336,0ZM9.829,15.2A5.375,5.375,0,1,1,15.2,9.829,5.381,5.381,0,0,1,9.829,15.2Zm5.5-9.482a1.588,1.588,0,1,1,1.588-1.588A1.59,1.59,0,0,1,15.332,5.721Z" fill="#fff"/>
    <path id="Path_23" data-name="Path 23" d="M150.243,146.02a4.223,4.223,0,1,0,4.223,4.223A4.227,4.227,0,0,0,150.243,146.02Z" transform="translate(-140.414 -140.414)" fill="#fff"/>
  </g>
</svg>
