<svg xmlns="http://www.w3.org/2000/svg" width="19.028" height="18.993" viewBox="0 0 19.028 18.993">
  <path id="lang" d="M18.276,12.49a9.4,9.4,0,0,0,0-6.184.677.677,0,0,0-.03-.085,9.4,9.4,0,0,0-17.691,0,.668.668,0,0,0-.03.085,9.4,9.4,0,0,0,0,6.184.677.677,0,0,0,.03.085,9.4,9.4,0,0,0,17.691,0,.672.672,0,0,0,.03-.085ZM9.4,17.45c-.358,0-.935-.648-1.417-2.1a14.754,14.754,0,0,1-.555-2.374h3.945a14.767,14.767,0,0,1-.555,2.374C10.335,16.8,9.758,17.45,9.4,17.45ZM7.265,11.633c-.065-.718-.1-1.468-.1-2.235s.034-1.516.1-2.235h4.271c.065.718.1,1.468.1,2.235s-.034,1.516-.1,2.235ZM1.349,9.4a8.028,8.028,0,0,1,.316-2.235H5.913c-.063.735-.1,1.483-.1,2.235s.032,1.5.095,2.235H1.665A8.028,8.028,0,0,1,1.349,9.4ZM9.4,1.347c.358,0,.935.648,1.417,2.095a14.756,14.756,0,0,1,.555,2.374H7.428a14.753,14.753,0,0,1,.555-2.374C8.465,2,9.043,1.347,9.4,1.347Zm3.487,5.817h4.248a8.065,8.065,0,0,1,0,4.47H12.887c.063-.733.1-1.485.1-2.235s-.032-1.5-.1-2.235Zm3.722-1.347H12.733a12.93,12.93,0,0,0-1.227-4.189,8.086,8.086,0,0,1,5.1,4.189ZM7.3,1.627a12.93,12.93,0,0,0-1.227,4.19H2.191A8.087,8.087,0,0,1,7.3,1.627ZM2.2,12.98H6.068A12.931,12.931,0,0,0,7.3,17.17a8.086,8.086,0,0,1-5.109-4.189Zm9.314,4.19a12.93,12.93,0,0,0,1.227-4.19h3.877a8.086,8.086,0,0,1-5.113,4.19Z" transform="translate(0.114 0.098)" fill="#fff" stroke="#fff" stroke-width="0.2"/>
</svg>
