<svg xmlns="http://www.w3.org/2000/svg" width="24.052" height="18.602" viewBox="0 0 24.052 18.602">
  <g id="Group_51" data-name="Group 51" transform="translate(0 0)">
    <path id="Path_45" data-name="Path 45" d="M90.145,24.68Zm.072,0h-.072v-.215Zm0,.215h0m0-.358h0M71.87,23.82a.573.573,0,1,1,.14.453.573.573,0,0,1-.14-.453m1.577,0v-.932h-.43V23.1a.717.717,0,0,0-.645-.287,1.039,1.039,0,0,0,0,2.078.717.717,0,0,0,.645-.287v.215h.43Zm14.477,0a.573.573,0,1,1,.14.453.573.573,0,0,1-.14-.453m1.577,0V22.1h-.43v1a.717.717,0,0,0-.645-.287,1.039,1.039,0,1,0,0,2.078.717.717,0,0,0,.645-.287v.215h.43Zm-10.75-.645a.5.5,0,0,1,.5.5H78.177a.5.5,0,0,1,.5-.5m0-.358A1.04,1.04,0,0,0,78.75,24.9a1.218,1.218,0,0,0,.788-.287l-.215-.287a.932.932,0,0,1-.573.215.573.573,0,0,1-.573-.5H79.61v-.143a.932.932,0,0,0-.86-1.075m5.16,1a.573.573,0,1,1,.14.453.573.573,0,0,1-.14-.453m1.577,0v-.932h-.43V23.1a.717.717,0,0,0-.645-.287,1.04,1.04,0,0,0,.072,2.078.717.717,0,0,0,.645-.287v.215h.43Zm-4.013,0a1.129,1.129,0,0,0,1.792.86l-.215-.358-.5.143a.645.645,0,0,1,0-1.29l.5.143.215-.358a1.084,1.084,0,0,0-1.792.788m5.518-1a.573.573,0,0,0-.5.287v-.215h-.43v1.935h.43v-1c0-.358.143-.5.43-.5h.287l.143-.43h-.287M75.6,23.032a1.5,1.5,0,0,0-.788-.215c-.5,0-.788.215-.788.645s.215.5.645.573h.215c.215,0,.358.072.358.215s-.143.215-.43.215a1.075,1.075,0,0,1-.645-.215l-.215.358a1.433,1.433,0,0,0,.86.287c.573,0,.932-.287.932-.645s-.287-.5-.717-.573h-.215c-.215,0-.358-.072-.358-.215s.143-.215.358-.215l.645.143Zm5.518-.215a.573.573,0,0,0-.5.287v-.215h-.43v1.935h.43V23.748c0-.358.143-.5.43-.5h.287l.143-.43h-.287m-3.655.072h-.717v-.573h-.43v.573h-.5v.358h.43v.932c0,.43.143.717.717.717l.5-.143-.143-.358-.358.143c-.215,0-.287-.143-.287-.358v-.932h.717Zm-6.378,1.935V23.605a.717.717,0,0,0-.788-.788.788.788,0,0,0-.717.358A.717.717,0,0,0,69,22.817a.645.645,0,0,0-.573.287v-.215H68v1.935h.43V23.748a.43.43,0,0,1,.5-.5c.287,0,.43.215.43.5v1.075h.43V23.748a.43.43,0,0,1,.5-.5c.287,0,.43.215.43.5v1.075Z" transform="translate(-66.595 -6.297)" fill="#ebebeb"/>
    <path id="Path_46" data-name="Path 46" d="M99.073,16.687V16.4H98.93v.287h.143Zm-.5,0v-.215H98.5v.215Z" transform="translate(-75.237 -4.682)" fill="#ebebeb"/>
    <path id="Path_47" data-name="Path 47" d="M75.256,7.467a7.382,7.382,0,0,1,2.867-5.805,7.453,7.453,0,1,0,0,11.682,7.382,7.382,0,0,1-2.867-5.805" transform="translate(-66.04 -0.05)" fill="#ebebeb"/>
    <path id="Path_48" data-name="Path 48" d="M94.868,7.474A7.453,7.453,0,0,1,82.9,13.279,7.453,7.453,0,0,0,82.9,1.6,7.453,7.453,0,0,1,94.868,7.4" transform="translate(-70.817 -0.057)" fill="#ebebeb"/>
  </g>
</svg>
