<svg xmlns="http://www.w3.org/2000/svg" width="32" height="32" viewBox="0 0 32 32">
  <g id="united_kingdom" transform="translate(0 0)">
    <g id="flags">
      <g id="united_kingdom-2" data-name="united_kingdom">
        <circle id="blue" cx="16" cy="16" r="16" fill="#227fbb"/>
        <path id="white" d="M20.672,17.094l9.383,9.383,9.383-9.383a16.092,16.092,0,0,1,3.578,3.578l-9.383,9.383,9.383,9.383a16.092,16.092,0,0,1-3.578,3.578l-9.383-9.383-9.383,9.383a16.092,16.092,0,0,1-3.578-3.578l9.383-9.383-9.383-9.383a16.092,16.092,0,0,1,3.578-3.578Z" transform="translate(-14.055 -14.055)" fill="#fff" fill-rule="evenodd"/>
        <path id="red" d="M44.226,41.911l-8.216-8.38H33.233l9.7,9.854a16.089,16.089,0,0,0,1.3-1.474ZM21.754,44.737,32.646,33.709H29.8l-9.565,9.685a16.09,16.09,0,0,0,1.517,1.344ZM42.912,20.814,33.8,30H31.224L41.547,19.592a16.092,16.092,0,0,1,1.365,1.222ZM18.948,22.287l7.128,7.155h2.8L20.259,20.8a16.091,16.091,0,0,0-1.311,1.485Z" transform="translate(-15.58 -16.109)" fill="#e94b35" fill-rule="evenodd"/>
        <path id="white-2" data-name="white" d="M12.444.4V12.444H.4a16.141,16.141,0,0,0,0,7.111H12.444V31.6a16.141,16.141,0,0,0,7.111,0V19.556H31.6a16.141,16.141,0,0,0,0-7.111H19.556V.4a16.141,16.141,0,0,0-7.111,0Z" fill="#fff" fill-rule="evenodd"/>
        <path id="red-2" data-name="red" d="M13.333.221V13.333H.221a16.183,16.183,0,0,0,0,5.333H13.333V31.779a16.183,16.183,0,0,0,5.333,0V18.667H31.779a16.183,16.183,0,0,0,0-5.333H18.667V.221a16.183,16.183,0,0,0-5.333,0Z" fill="#e94b35" fill-rule="evenodd"/>
      </g>
    </g>
  </g>
</svg>
