<svg xmlns="http://www.w3.org/2000/svg" width="30.243" height="9.818" viewBox="0 0 30.243 9.818">
  <g id="g4158" transform="translate(0 0)">
    <path id="polygon9" d="M17.337,15.46H14.9L16.405,6h2.437Z" transform="translate(-4.293 -5.785)" fill="#ebebeb"/>
    <path id="path11" d="M27.753,6.13a6.02,6.02,0,0,0-2.222-.43c-2.437,0-4.157,1.29-4.157,3.153s1.218,2.15,2.15,2.58,1.29.788,1.29,1.147-.788.932-1.505.932a4.873,4.873,0,0,1-2.293-.5l-.358-.143-.358,2.15a7.453,7.453,0,0,0,2.723.5c2.58,0,4.228-1.29,4.3-3.225s-.645-1.935-2.078-2.58S23.883,9,23.883,8.567s.43-.788,1.433-.788a4.157,4.157,0,0,1,1.792.358h.215l.358-2.078Z" transform="translate(-5.823 -5.7)" fill="#ebebeb"/>
    <path id="path13" d="M33.8,12.088l1-2.652L35.16,8.5l.143.788.573,2.723ZM36.808,6H34.873a1.218,1.218,0,0,0-1.29.788L30,15.457h2.58l.5-1.433h3.153l.287,1.433h2.293L36.808,6Z" transform="translate(-8.572 -5.781)" fill="#ebebeb"/>
    <path id="path15" d="M9.62,6,7.255,12.45l-.287-1.29A7.238,7.238,0,0,0,3.6,7.147L5.75,15.46H8.33L12.2,6Z" transform="translate(-1.092 -5.785)" fill="#ebebeb"/>
    <path id="path17" d="M4.042,6H.1v.215a8.119,8.119,0,0,1,5.877,4.873l-.86-4.3A1,1,0,0,0,4.042,6Z" transform="translate(-0.1 -5.783)" fill="#ebebeb"/>
  </g>
</svg>
