<svg xmlns="http://www.w3.org/2000/svg" width="22.971" height="16.082" viewBox="0 0 22.971 16.082">
  <path id="yt" d="M22.494,79.517a2.877,2.877,0,0,0-2.024-2.024C18.673,77,11.484,77,11.484,77S4.3,77,2.5,77.473A2.936,2.936,0,0,0,.473,79.517a32.5,32.5,0,0,0,0,11.048A2.878,2.878,0,0,0,2.5,92.59c1.816.492,8.986.492,8.986.492s7.189,0,8.986-.473A2.877,2.877,0,0,0,22.5,90.585a30.322,30.322,0,0,0,.473-5.524,28.78,28.78,0,0,0-.475-5.544Zm-13.3,8.967V81.6l5.978,3.443Z" transform="translate(0 -77)" fill="#fff"/>
</svg>
