<svg xmlns="http://www.w3.org/2000/svg" width="238.435" height="27.305" viewBox="0 0 238.435 27.305">
  <g id="logo" transform="translate(-137.682 -110.886)">
    <g id="Group_1" data-name="Group 1" transform="translate(137.682 110.886)">
      <path id="Path_1" data-name="Path 1" d="M144.249,119.485a4.745,4.745,0,0,1,1.635,1,4.907,4.907,0,0,1,1.134,1.635,5.512,5.512,0,0,1,.428,2.239v8.748H144.97v-8.336a3.809,3.809,0,0,0-.265-1.5,3.12,3.12,0,0,0-.692-1.031,2.613,2.613,0,0,0-1-.6,3.756,3.756,0,0,0-1.193-.192,3.459,3.459,0,0,0-1.223.206,3.594,3.594,0,0,0-.971.546,4.479,4.479,0,0,0-.751.751,8.463,8.463,0,0,0-.561.8v9.367h-2.474V110.839h2.474v10.31a7.053,7.053,0,0,1,.471-.56,4.079,4.079,0,0,1,.811-.662,5.568,5.568,0,0,1,1.163-.544,4.754,4.754,0,0,1,1.562-.236A5.574,5.574,0,0,1,144.249,119.485Z" transform="translate(-135.839 -109.721)" fill="#fff"/>
      <path id="Path_2" data-name="Path 2" d="M149.39,113.565a1.636,1.636,0,1,1-.5,1.178A1.614,1.614,0,0,1,149.39,113.565Zm2.416,5.538v13.608h-2.475V119.1Z" transform="translate(-133.51 -109.323)" fill="#fff"/>
      <path id="Path_3" data-name="Path 3" d="M163.58,118.4a6.1,6.1,0,0,1,2.106,1.459,6.72,6.72,0,0,1,1.384,2.283,8.457,8.457,0,0,1,.5,2.989v.383a3.32,3.32,0,0,1-.031.412H156.554a3.783,3.783,0,0,0,.442,1.487,4.67,4.67,0,0,0,2.445,2.166,4.878,4.878,0,0,0,1.8.323,4.756,4.756,0,0,0,2.46-.618,5.691,5.691,0,0,0,1.635-1.385l1.56,1.619a9.793,9.793,0,0,1-1.016.988,7.307,7.307,0,0,1-1.3.869,7.174,7.174,0,0,1-1.577.6,7.39,7.39,0,0,1-1.855.222,7.133,7.133,0,0,1-2.8-.546,6.531,6.531,0,0,1-2.224-1.517,7.121,7.121,0,0,1-1.458-2.3,7.622,7.622,0,0,1-.53-2.858,7.733,7.733,0,0,1,.487-2.739A6.977,6.977,0,0,1,156,119.979a6.339,6.339,0,0,1,2.135-1.531,6.735,6.735,0,0,1,2.784-.56A6.808,6.808,0,0,1,163.58,118.4Zm1.267,4.257a4.325,4.325,0,0,0-.8-1.208,3.944,3.944,0,0,0-1.3-.913,4.449,4.449,0,0,0-1.841-.354,4.215,4.215,0,0,0-1.87.383,4.465,4.465,0,0,0-1.3.929,4.084,4.084,0,0,0-.8,1.193,4.177,4.177,0,0,0-.338,1.177h8.542A3.549,3.549,0,0,0,164.847,122.66Z" transform="translate(-132.572 -108.462)" fill="#fff"/>
      <path id="Path_4" data-name="Path 4" d="M169.589,118.817v-4.153h2.475v4.153h4.241v2.238h-4.241v7.335a2.206,2.206,0,0,0,.5,1.546,1.789,1.789,0,0,0,1.385.544,2.248,2.248,0,0,0,.884-.161,5.665,5.665,0,0,0,.766-.4l.913,2.033a6.254,6.254,0,0,1-1.546.662,5.161,5.161,0,0,1-1.223.163,4.632,4.632,0,0,1-1.5-.251,3.883,3.883,0,0,1-1.325-.766,3.836,3.836,0,0,1-.958-1.325,4.642,4.642,0,0,1-.368-1.929v-7.453h-2.65v-2.238Z" transform="translate(-130.288 -109.038)" fill="#fff"/>
      <path id="Path_5" data-name="Path 5" d="M185.449,118.315a5.3,5.3,0,0,1,1.841,1.134,4.751,4.751,0,0,1,1.09,1.606,4.817,4.817,0,0,1,.368,1.841v8.954H186.48v-1.974a5.682,5.682,0,0,1-6.437,2.018,5.437,5.437,0,0,1-1.635-.9,4.43,4.43,0,0,1-1.177-1.444,4.476,4.476,0,0,1-.031-3.814,4.388,4.388,0,0,1,1.135-1.444,5.289,5.289,0,0,1,1.723-.943,6.686,6.686,0,0,1,2.15-.338,7.419,7.419,0,0,1,2.357.354,7.718,7.718,0,0,1,1.708.766V123.4a3.259,3.259,0,0,0-.382-1.694,2.837,2.837,0,0,0-.929-.972,3.155,3.155,0,0,0-1.148-.442,6.143,6.143,0,0,0-1.017-.1,7.021,7.021,0,0,0-2.018.324,11.136,11.136,0,0,0-2.018.825l-1.031-2.061a11.612,11.612,0,0,1,2.18-.943,9.171,9.171,0,0,1,2.916-.442A7.36,7.36,0,0,1,185.449,118.315Zm-.722,11.031a7,7,0,0,0,1.546-1.384v-1.915a5.3,5.3,0,0,0-1.531-.692,6.981,6.981,0,0,0-2-.28,4.1,4.1,0,0,0-2.562.707,2.206,2.206,0,0,0-.913,1.827,2.1,2.1,0,0,0,.265,1.075,2.259,2.259,0,0,0,.707.752,3.341,3.341,0,0,0,.986.441,4.292,4.292,0,0,0,1.134.147A4.08,4.08,0,0,0,184.726,129.345Z" transform="translate(-128.529 -108.462)" fill="#fff"/>
      <path id="Path_6" data-name="Path 6" d="M193.062,133.108h-2.474V110.839h2.474v14.7l5.832-6.039h3.241l-6.363,6.42,6.892,7.188h-3.446l-6.157-6.6Z" transform="translate(-126.066 -109.721)" fill="#fff"/>
      <path id="Path_7" data-name="Path 7" d="M210.6,118.315a5.3,5.3,0,0,1,1.841,1.134,4.752,4.752,0,0,1,1.09,1.606,4.817,4.817,0,0,1,.368,1.841v8.954h-2.267v-1.974a5.68,5.68,0,0,1-6.436,2.018,5.429,5.429,0,0,1-1.636-.9,4.43,4.43,0,0,1-1.177-1.444,4.471,4.471,0,0,1-.029-3.814,4.385,4.385,0,0,1,1.134-1.444,5.3,5.3,0,0,1,1.723-.943,6.693,6.693,0,0,1,2.151-.338,7.411,7.411,0,0,1,2.356.354,7.73,7.73,0,0,1,1.709.766V123.4a3.259,3.259,0,0,0-.383-1.694,2.845,2.845,0,0,0-.927-.972,3.161,3.161,0,0,0-1.149-.442,6.13,6.13,0,0,0-1.016-.1,7.015,7.015,0,0,0-2.018.324,11.149,11.149,0,0,0-2.019.825l-1.03-2.061a11.562,11.562,0,0,1,2.179-.943,9.178,9.178,0,0,1,2.917-.442A7.349,7.349,0,0,1,210.6,118.315Zm-.721,11.031a7.055,7.055,0,0,0,1.546-1.384v-1.915a5.305,5.305,0,0,0-1.532-.692,6.973,6.973,0,0,0-2-.28,4.1,4.1,0,0,0-2.563.707,2.208,2.208,0,0,0-.912,1.827,2.1,2.1,0,0,0,.264,1.075,2.259,2.259,0,0,0,.707.752,3.334,3.334,0,0,0,.988.441,4.292,4.292,0,0,0,1.134.147A4.08,4.08,0,0,0,209.876,129.345Z" transform="translate(-124.04 -108.462)" fill="#fff"/>
      <path id="Path_8" data-name="Path 8" d="M222.372,117.976a5.424,5.424,0,0,1,.986.265l-.913,2.238a3.062,3.062,0,0,0-.751-.22,4.458,4.458,0,0,0-.752-.074,2.817,2.817,0,0,0-1.148.222,3.94,3.94,0,0,0-.9.544,3.486,3.486,0,0,0-.678.737,5.617,5.617,0,0,0-.456.8v9.367h-2.474V118.242h2.3v2.091a6.149,6.149,0,0,1,.633-.912,4.561,4.561,0,0,1,.84-.781,4.1,4.1,0,0,1,1.061-.544,3.883,3.883,0,0,1,1.3-.206A5.7,5.7,0,0,1,222.372,117.976Z" transform="translate(-121.657 -108.462)" fill="#fff"/>
      <path id="Path_9" data-name="Path 9" d="M224.288,113.565a1.638,1.638,0,1,1-.5,1.178A1.616,1.616,0,0,1,224.288,113.565ZM226.7,119.1v13.608H224.23V119.1Z" transform="translate(-120.14 -109.323)" fill="#fff"/>
      <path id="Path_10" data-name="Path 10" d="M235.788,136.311l11.693-26.421,2,.884L237.79,137.195Z" transform="translate(-117.998 -109.89)" fill="#fff"/>
      <path id="Path_11" data-name="Path 11" d="M257.883,128.522a5.513,5.513,0,0,0,2.092,1.236,4.486,4.486,0,0,0,1.4.206,5.829,5.829,0,0,0,.986-.088,3.213,3.213,0,0,0,.943-.309,2.219,2.219,0,0,0,.707-.56,1.276,1.276,0,0,0,.279-.839,1.291,1.291,0,0,0-.279-.825,2.215,2.215,0,0,0-.737-.589,5.039,5.039,0,0,0-1-.383q-.546-.147-1.076-.265-.677-.147-1.531-.412a7.479,7.479,0,0,1-1.62-.721,4.3,4.3,0,0,1-1.3-1.193,3,3,0,0,1-.53-1.8,3.659,3.659,0,0,1,.354-1.576,3.837,3.837,0,0,1,1.016-1.31,5,5,0,0,1,1.577-.884,6.111,6.111,0,0,1,2.061-.324,6.607,6.607,0,0,1,3.019.648,7.4,7.4,0,0,1,2.018,1.413l-1.62,1.679a6.487,6.487,0,0,0-1.384-1.016,4.171,4.171,0,0,0-2.092-.487,2.856,2.856,0,0,0-1.886.546,1.582,1.582,0,0,0-.647,1.222,1.177,1.177,0,0,0,.279.8,2.229,2.229,0,0,0,.752.544,6.646,6.646,0,0,0,1.061.383q.589.163,1.207.31.765.175,1.605.441a6.087,6.087,0,0,1,1.546.737,4.133,4.133,0,0,1,1.179,1.193,3.193,3.193,0,0,1,.471,1.783,3.49,3.49,0,0,1-.471,1.841,3.994,3.994,0,0,1-1.222,1.281,5.582,5.582,0,0,1-1.723.751,7.752,7.752,0,0,1-1.945.251,7.143,7.143,0,0,1-1.929-.251,7.365,7.365,0,0,1-1.635-.662,8.2,8.2,0,0,1-1.326-.913,5.926,5.926,0,0,1-.972-1.031l1.709-1.59A5.118,5.118,0,0,0,257.883,128.522Z" transform="translate(-114.477 -108.462)" fill="#fff"/>
      <path id="Path_12" data-name="Path 12" d="M275.747,118.315a5.3,5.3,0,0,1,1.841,1.134,4.752,4.752,0,0,1,1.09,1.606,4.818,4.818,0,0,1,.368,1.841v8.954h-2.267v-1.974a5.68,5.68,0,0,1-6.436,2.018,5.429,5.429,0,0,1-1.636-.9,4.43,4.43,0,0,1-1.177-1.444,4.47,4.47,0,0,1-.029-3.814,4.385,4.385,0,0,1,1.134-1.444,5.289,5.289,0,0,1,1.723-.943,6.693,6.693,0,0,1,2.151-.338,7.417,7.417,0,0,1,2.356.354,7.755,7.755,0,0,1,1.709.766V123.4a3.259,3.259,0,0,0-.383-1.694,2.837,2.837,0,0,0-.929-.972,3.147,3.147,0,0,0-1.148-.442,6.131,6.131,0,0,0-1.016-.1,7.015,7.015,0,0,0-2.018.324,11.114,11.114,0,0,0-2.019.825l-1.03-2.061a11.564,11.564,0,0,1,2.179-.943,9.176,9.176,0,0,1,2.916-.442A7.351,7.351,0,0,1,275.747,118.315Zm-.721,11.031a7.055,7.055,0,0,0,1.546-1.384v-1.915a5.29,5.29,0,0,0-1.532-.692,6.974,6.974,0,0,0-2-.28,4.1,4.1,0,0,0-2.563.707,2.208,2.208,0,0,0-.912,1.827,2.1,2.1,0,0,0,.264,1.075,2.259,2.259,0,0,0,.707.752,3.334,3.334,0,0,0,.988.441,4.292,4.292,0,0,0,1.134.147A4.08,4.08,0,0,0,275.025,129.345Z" transform="translate(-112.411 -108.462)" fill="#fff"/>
      <path id="Path_13" data-name="Path 13" d="M288.875,118.226a4.67,4.67,0,0,1,2.754,2.636,5.7,5.7,0,0,1,.412,2.239v8.748h-2.474v-8.336a3.788,3.788,0,0,0-.266-1.5,3.118,3.118,0,0,0-.691-1.031,2.609,2.609,0,0,0-1-.6,3.751,3.751,0,0,0-1.193-.192,3.448,3.448,0,0,0-1.222.206,3.62,3.62,0,0,0-.972.546,4.526,4.526,0,0,0-.751.751,8.449,8.449,0,0,0-.56.8v9.367h-2.474V118.242h2.3v1.915a5.3,5.3,0,0,1,1.576-1.562,4.609,4.609,0,0,1,2.636-.707A5.569,5.569,0,0,1,288.875,118.226Z" transform="translate(-110.028 -108.462)" fill="#fff"/>
      <path id="Path_14" data-name="Path 14" d="M302.038,119.809a5.642,5.642,0,0,1,1.635,1.369V110.839h2.475v22.269h-2.269v-1.974a3.972,3.972,0,0,1-.707.854,5.238,5.238,0,0,1-1.016.737,6.079,6.079,0,0,1-1.281.53,5.551,5.551,0,0,1-1.562.206,6.1,6.1,0,0,1-2.592-.56,6.77,6.77,0,0,1-2.106-1.517,7.033,7.033,0,0,1-1.414-2.269,7.941,7.941,0,0,1,0-5.626,7.177,7.177,0,0,1,1.4-2.267,6.562,6.562,0,0,1,2.091-1.517,6.089,6.089,0,0,1,2.593-.56A5.273,5.273,0,0,1,302.038,119.809Zm.045,2.342a4.135,4.135,0,0,0-2.445-.707,4.249,4.249,0,0,0-3.24,1.428,4.759,4.759,0,0,0-.913,1.547,5.644,5.644,0,0,0,0,3.77,4.935,4.935,0,0,0,.9,1.546,4.12,4.12,0,0,0,1.4,1.045,4.629,4.629,0,0,0,3.255.163,5.175,5.175,0,0,0,1.149-.56,4.456,4.456,0,0,0,.884-.751,4.936,4.936,0,0,0,.6-.825V123.8A5.763,5.763,0,0,0,302.083,122.15Z" transform="translate(-107.841 -109.721)" fill="#fff"/>
      <path id="Path_15" data-name="Path 15" d="M314.845,117.976a5.374,5.374,0,0,1,.986.265l-.912,2.238a3.072,3.072,0,0,0-.752-.22,4.445,4.445,0,0,0-.751-.074,2.823,2.823,0,0,0-1.149.222,3.932,3.932,0,0,0-.9.544,3.426,3.426,0,0,0-.678.737,5.51,5.51,0,0,0-.456.8v9.367h-2.475V118.242h2.3v2.091a6.155,6.155,0,0,1,.633-.912,4.594,4.594,0,0,1,.839-.781,4.134,4.134,0,0,1,1.061-.544,3.89,3.89,0,0,1,1.3-.206A5.688,5.688,0,0,1,314.845,117.976Z" transform="translate(-105.15 -108.462)" fill="#fff"/>
      <path id="Path_16" data-name="Path 16" d="M316.762,113.565a1.635,1.635,0,1,1-.5,1.178A1.614,1.614,0,0,1,316.762,113.565Zm2.416,5.538v13.608H316.7V119.1Z" transform="translate(-103.633 -109.323)" fill="#fff"/>
      <path id="Path_17" data-name="Path 17" d="M324.039,119.553V114.87a4.393,4.393,0,0,1,.383-1.9,4.219,4.219,0,0,1,.986-1.355,3.966,3.966,0,0,1,1.369-.81,4.658,4.658,0,0,1,1.532-.265,5.806,5.806,0,0,1,1.193.147,5.685,5.685,0,0,1,1.576.647l-.912,2.033a3.285,3.285,0,0,0-1.679-.53,1.845,1.845,0,0,0-1.444.589,2.288,2.288,0,0,0-.53,1.591v4.536h3.534v2.238h-3.534v11.37h-2.474v-11.37h-2.828v-2.238Z" transform="translate(-102.749 -109.774)" fill="#fff"/>
      <path id="Path_18" data-name="Path 18" d="M332.614,119.553V114.87a4.411,4.411,0,0,1,.382-1.9,4.239,4.239,0,0,1,.988-1.355,3.955,3.955,0,0,1,1.369-.81,4.652,4.652,0,0,1,1.532-.265,5.806,5.806,0,0,1,1.193.147,5.7,5.7,0,0,1,1.576.647l-.913,2.033a3.282,3.282,0,0,0-1.679-.53,1.845,1.845,0,0,0-1.443.589,2.288,2.288,0,0,0-.53,1.591v4.536h3.534v2.238h-3.534v11.37h-2.474v-11.37h-2.828v-2.238Z" transform="translate(-101.219 -109.774)" fill="#fff"/>
    </g>
  </g>
</svg>
